<svg width="36" height="17" viewBox="0 0 36 17" fill="none" xmlns="http://www.w3.org/2000/svg">
<path d="M26.6454 0.137238C26.1809 0.315174 25.8854 0.821608 25.8854 1.42385C25.8854 1.94398 25.9839 2.06716 28.5172 4.54458L31.149 7.11782H16.1322C-0.193516 7.11782 0.524252 7.09044 0.158331 7.87062C-0.052777 8.32231 -0.052777 8.6508 0.158331 9.10249C0.524252 9.88267 -0.193516 9.8553 16.1322 9.8553H31.149L28.5172 12.4285C25.9557 14.9333 25.8854 15.0154 25.8854 15.5766C25.8854 16.3431 26.3217 16.8222 27.1098 16.9317L27.7009 17.0001L30.4875 14.3995C35.7934 9.44467 36.1875 9.00668 35.9482 8.117C35.8497 7.69269 34.189 6.00914 30.3609 2.45041C27.6165 -0.109135 27.4757 -0.191259 26.6454 0.137238Z" fill="#273561"/>
</svg>
